<?xml version="1.0" encoding="utf-8"?>
<!-- Generator: Adobe Illustrator 24.0.3, SVG Export Plug-In . SVG Version: 6.00 Build 0)  -->
<svg version="1.1" id="Layer_1" xmlns="http://www.w3.org/2000/svg" xmlns:xlink="http://www.w3.org/1999/xlink" x="0px" y="0px"
	 viewBox="0 0 36 36" style="enable-background:new 0 0 36 36;" xml:space="preserve">
<style type="text/css">
	.st0{fill:#808080;}
</style>
<g>
	<path class="st0" d="M17.9,0C17.9,0,17.9,0,17.9,0C8,0,0,8,0,17.9C0,27.8,8.2,36,18.1,36c0,0,0.1,0,0.1,0C28,36,36,28,36,18.1
		C36,8.2,27.8,0,17.9,0z M29.4,29.3c-3,3-7,4.7-11.2,4.7l-0.1,0C9.3,34,2,26.7,2,17.9c0-4.2,1.6-8.2,4.6-11.2c3-3,7-4.7,11.2-4.7
		l0.1,0C26.7,2,34,9.3,34,18.1C34,22.3,32.4,26.3,29.4,29.3z"/>
	<path class="st0" d="M17.2,16.1l-4.8-3.7l4.9,6.4c0.4,0.4,1,0.4,1.4,0c0.2-0.2,0.3-0.5,0.3-0.7L18,6L17.2,16.1z"/>
</g>
</svg>
