<?xml version="1.0" encoding="utf-8"?>
<!-- Generator: Adobe Illustrator 24.0.3, SVG Export Plug-In . SVG Version: 6.00 Build 0)  -->
<svg version="1.1" id="Layer_1" xmlns="http://www.w3.org/2000/svg" xmlns:xlink="http://www.w3.org/1999/xlink" x="0px" y="0px"
	 viewBox="0 0 36 36" style="enable-background:new 0 0 36 36;" xml:space="preserve">
<style type="text/css">
	.st0{fill:#808080;}
</style>
<path class="st0" d="M36,17.1c0-0.7-0.1-1.4-0.2-2l-2-0.2c-0.4-2.1-1.2-4.1-2.4-5.8l1.3-1.6C32.2,7,31.8,6.5,31.3,6
	c-0.4-0.5-0.8-0.9-1.3-1.3c-0.5-0.5-1-0.9-1.6-1.3l-1.6,1.3c-1.7-1.2-3.7-2-5.8-2.4l-0.2-2c-0.7-0.1-1.3-0.2-2-0.2
	c-0.3,0-0.6,0-0.9,0s-0.6,0-0.9,0c-0.7,0-1.4,0.1-2,0.2l-0.2,2c-2.1,0.4-4.1,1.2-5.8,2.4L7.5,3.4C7,3.8,6.5,4.2,6,4.7
	C5.5,5.1,5.1,5.5,4.7,6C4.2,6.5,3.8,7,3.4,7.5l1.3,1.6c-1.2,1.7-2,3.7-2.4,5.8l-2,0.2c-0.1,0.7-0.2,1.3-0.2,2c0,0.3,0,0.6,0,0.9
	s0,0.6,0,0.9c0,0.7,0.1,1.4,0.2,2l2,0.2c0.4,2.1,1.2,4.1,2.4,5.8l-1.3,1.6C3.8,29,4.2,29.5,4.7,30c0.4,0.5,0.8,0.9,1.3,1.3
	c0.5,0.5,1,0.9,1.6,1.3l1.6-1.3c1.7,1.2,3.7,2,5.8,2.4l0.2,2c0.7,0.1,1.3,0.2,2,0.2c0.3,0,0.6,0,0.9,0s0.6,0,0.9,0
	c0.7,0,1.4-0.1,2-0.2l0.2-2c2.1-0.4,4.1-1.2,5.8-2.4l1.6,1.3c0.6-0.4,1.1-0.8,1.6-1.3c0.5-0.4,0.9-0.8,1.3-1.3
	c0.5-0.5,0.9-1,1.3-1.6l-1.3-1.6c1.2-1.7,2-3.7,2.4-5.8l2-0.2c0.1-0.7,0.2-1.3,0.2-2c0-0.3,0-0.6,0-0.9S36,17.4,36,17.1z M31.9,19.2
	c-0.1,0.7-0.2,1.4-0.3,2c-0.3,1.5-0.9,2.8-1.7,4c-0.4,0.6-0.8,1.2-1.2,1.7l1.3,1.5c-0.5,0.5-1,1-1.5,1.5L27,28.7
	c-0.5,0.4-1.1,0.8-1.7,1.2c-1.2,0.8-2.6,1.3-4,1.7c-0.7,0.2-1.3,0.3-2,0.3l-0.2,2C18.7,34,18.4,34,18,34s-0.7,0-1.1-0.1l-0.2-2
	c-0.7-0.1-1.4-0.2-2-0.3c-1.5-0.3-2.8-0.9-4-1.7c-0.6-0.4-1.2-0.8-1.7-1.2L7.5,30c-0.5-0.5-1-1-1.5-1.5L7.3,27
	c-0.4-0.5-0.8-1.1-1.2-1.7c-0.8-1.2-1.3-2.6-1.7-4c-0.2-0.7-0.3-1.3-0.3-2l-2-0.2C2,18.7,2,18.4,2,18s0-0.7,0.1-1.1l2-0.2
	c0.1-0.7,0.2-1.4,0.3-2c0.3-1.5,0.9-2.8,1.7-4C6.4,10.1,6.8,9.5,7.3,9L6,7.5c0.5-0.5,1-1,1.5-1.5L9,7.3c0.5-0.4,1.1-0.8,1.7-1.2
	c1.2-0.8,2.6-1.3,4-1.7c0.7-0.2,1.3-0.3,2-0.3l0.2-2C17.3,2,17.6,2,18,2s0.7,0,1.1,0.1l0.2,2c0.7,0.1,1.4,0.2,2,0.3
	c1.5,0.3,2.8,0.9,4,1.7c0.6,0.4,1.2,0.8,1.7,1.2L28.5,6c0.5,0.5,1,1,1.5,1.5L28.7,9c0.4,0.5,0.8,1.1,1.2,1.7c0.8,1.2,1.3,2.6,1.7,4
	c0.2,0.7,0.3,1.3,0.3,2l2,0.2c0,0.4,0.1,0.7,0.1,1.1s0,0.7-0.1,1.1L31.9,19.2z"/>
</svg>
