<?xml version="1.0" encoding="utf-8"?>
<!-- Generator: Adobe Illustrator 24.0.3, SVG Export Plug-In . SVG Version: 6.00 Build 0)  -->
<svg version="1.1" id="Layer_1" xmlns="http://www.w3.org/2000/svg" xmlns:xlink="http://www.w3.org/1999/xlink" x="0px" y="0px"
	 viewBox="0 0 36 36" style="enable-background:new 0 0 36 36;" xml:space="preserve">
<style type="text/css">
	.st0{fill:#808080;}
</style>
<path class="st0" d="M26.5,3l-4.6-1.9l-3.1,6.3l-7.6,18.4c-0.4,1-0.2,2.1,0.4,3l-1.7,4.1l0.5,0.2l-0.7,1.8h2l0.5-1.1l0.4,0.2
	l1.7-4.1c1-0.1,2-0.8,2.4-1.8l7.7-18.5L26.5,3z M14.6,27.6c-0.3,0.3-0.7,0.5-1.2,0.3c-0.4-0.2-0.7-0.6-0.6-1.1L20.2,9l2.8-5.4
	l0.9,0.4L22,9.8L14.6,27.6z"/>
</svg>
