<?xml version="1.0" encoding="utf-8"?>
<!-- Generator: Adobe Illustrator 24.0.3, SVG Export Plug-In . SVG Version: 6.00 Build 0)  -->
<svg version="1.1" id="Layer_1" xmlns="http://www.w3.org/2000/svg" xmlns:xlink="http://www.w3.org/1999/xlink" x="0px" y="0px"
	 viewBox="0 0 36 36" style="enable-background:new 0 0 36 36;" xml:space="preserve">
<style type="text/css">
	.st0{fill:#808080;}
</style>
<path class="st0" d="M22.9,18.7c3-1.7,5.1-5,5.1-8.7c0-5.5-4.5-10-10-10C12.5,0,8,4.5,8,10c0,3.7,2.1,7,5.1,8.7
	C5.5,20.8,0,27.8,0,36h2c0-8.8,7.2-16,16-16s16,7.2,16,16h2C36,27.8,30.5,20.8,22.9,18.7z M10,10c0-4.4,3.6-8,8-8s8,3.6,8,8
	s-3.6,8-8,8S10,14.4,10,10z"/>
</svg>
