<?xml version="1.0" encoding="utf-8"?>
<!-- Generator: Adobe Illustrator 24.0.1, SVG Export Plug-In . SVG Version: 6.00 Build 0)  -->
<svg version="1.1" id="Layer_1" xmlns="http://www.w3.org/2000/svg" xmlns:xlink="http://www.w3.org/1999/xlink" x="0px" y="0px"
	 viewBox="0 0 36 36" style="enable-background:new 0 0 36 36;" xml:space="preserve">
<style type="text/css">
	.st0{fill:none;stroke:#808080;stroke-width:2;stroke-miterlimit:10;}
</style>
<polyline class="st0" points="27.17,20.17 30,23 27.17,25.83 "/>
<polyline class="st0" points="27.17,10.17 30,13 27.17,15.83 "/>
<path class="st0" d="M10,23c4.83,0,5.6-2.6,8-5"/>
<path class="st0" d="M10,13c4.83,0,5.6,2.6,8,5"/>
<path class="st0" d="M26,13c-4.83,0-5.6,2.6-8,5"/>
<path class="st0" d="M26,23c-4.83,0-5.6-2.6-8-5"/>
<line class="st0" x1="26" y1="23" x2="30" y2="23"/>
<line class="st0" x1="26" y1="13" x2="30" y2="13"/>
<line class="st0" x1="6" y1="23" x2="10" y2="23"/>
<line class="st0" x1="6" y1="13" x2="10" y2="13"/>
</svg>
