<?xml version="1.0" encoding="utf-8"?>
<!-- Generator: Adobe Illustrator 24.0.1, SVG Export Plug-In . SVG Version: 6.00 Build 0)  -->
<svg version="1.1" id="Layer_1" xmlns="http://www.w3.org/2000/svg" xmlns:xlink="http://www.w3.org/1999/xlink" x="0px" y="0px"
	 viewBox="0 0 36 36" style="enable-background:new 0 0 36 36;" xml:space="preserve">
<style type="text/css">
	.st0{fill:#808080;}
</style>
<g>
	<path class="st0" d="M18,2c4.27,0,8.29,1.66,11.31,4.69c6.24,6.24,6.24,16.39,0,22.63C26.29,32.34,22.27,34,18,34
		s-8.29-1.66-11.31-4.69c-6.24-6.24-6.24-16.39,0-22.63C9.71,3.66,13.73,2,18,2 M18,0C13.39,0,8.79,1.76,5.27,5.27
		c-7.03,7.03-7.03,18.43,0,25.46C8.79,34.24,13.39,36,18,36s9.21-1.76,12.73-5.27c7.03-7.03,7.03-18.43,0-25.46
		C27.21,1.76,22.61,0,18,0L18,0z"/>
</g>
</svg>
